<svg width="32" height="32" viewBox="0 0 32 32" fill="none" xmlns="http://www.w3.org/2000/svg">
<path d="M8.81675 8.71199L6.7485 6.64374L6.75725 21.5937L6.782 22.2925C6.79225 22.6212 6.85325 22.9922 6.955 23.3767L23.343 29.1555L27.4395 27.3405L27.441 27.3355L8.81675 8.71199Z" fill="#00D2B8"/>
<path d="M6.95501 23.3768L6.95601 23.3778C6.95501 23.371 6.95151 23.3635 6.95151 23.3565C6.95151 23.3635 6.95251 23.37 6.95501 23.3768ZM27.4395 27.3405L23.343 29.1555L6.95601 23.3778C7.26901 24.5788 7.96201 25.9288 8.70776 26.667L14.0558 31.9845L25.947 32L27.441 27.3355L27.4395 27.3405Z" fill="#55DDCA"/>
<path d="M0.379243 16.2645C-0.150257 16.8297 0.112743 17.9957 0.965243 18.8547L4.64249 22.5625L6.95499 23.3767C6.85324 22.9922 6.79224 22.6212 6.78199 22.2925L6.75724 21.5937L6.74849 6.64374L0.379243 16.2645Z" fill="#0081C6"/>
<path d="M23.4775 6.83578C23.093 6.73753 22.7243 6.67678 22.39 6.66628L21.6515 6.64078L6.7485 6.64278L27.443 27.3355H27.4448L29.2623 23.235L23.4775 6.83578Z" fill="#0079B3"/>
<path d="M23.4587 6.83176C23.4667 6.83351 23.473 6.83576 23.4782 6.83651L23.4775 6.83576C23.473 6.83351 23.4667 6.83351 23.4587 6.83176ZM26.7647 8.59151C26.0137 7.83426 24.6815 7.14601 23.4782 6.83651L29.2622 23.235L27.4447 27.3355H27.443L31.8845 25.917L31.894 13.74L26.7647 8.59151Z" fill="#00A4E4"/>
<path d="M22.6672 4.53723L18.9605 0.857727C18.1032 0.00847697 16.9367 -0.255773 16.373 0.272227L6.7485 6.64273L21.6515 6.64073L22.39 6.66623C22.7242 6.67673 23.093 6.73748 23.4775 6.83573L22.6672 4.53723Z" fill="#00D2B8"/>
</svg>
