<svg width="43" height="43" viewBox="0 0 43 43" fill="none" xmlns="http://www.w3.org/2000/svg">
<path d="M37.7725 9.03519L36.7635 8.02617L29.7175 0.979362C29.7167 0.978621 29.7167 0.978621 29.7167 0.978621L29.1451 0.407017C28.8819 0.144569 28.5327 0 28.1613 0H6.64499C5.76497 0 4.81897 0.679104 4.81897 2.16928V28.9138V41.174V41.5172C4.81897 42.1378 5.44247 42.742 6.18014 42.9325C6.21795 42.9429 6.25428 42.957 6.29283 42.9644C6.40849 42.9874 6.52637 43 6.64499 43H36.355C36.4736 43 36.5915 42.9874 36.7072 42.9644C36.7457 42.957 36.7821 42.9429 36.8199 42.9325C37.5575 42.742 38.181 42.1378 38.181 41.5172V41.174V28.9138V10.363C38.181 9.79436 38.1121 9.374 37.7725 9.03519ZM29.2845 2.64302L35.538 8.89655H29.2845V2.64302ZM6.64499 41.5172C6.59235 41.5172 6.5449 41.4987 6.49819 41.4809C6.38328 41.4261 6.30173 41.3104 6.30173 41.174V30.3966H36.6983V41.174C36.6983 41.3104 36.6167 41.4261 36.5018 41.4809C36.4551 41.4987 36.4077 41.5172 36.355 41.5172H6.64499ZM6.30173 28.9138V2.16928C6.30173 2.0084 6.32619 1.48276 6.64499 1.48276H27.8447C27.8203 1.57617 27.8017 1.67255 27.8017 1.77264V10.3793H36.4077C36.5077 10.3793 36.6041 10.3608 36.6975 10.3363C36.6975 10.3474 36.6983 10.3519 36.6983 10.363V28.9138H6.30173Z" fill="#13AA52"/>
<path d="M12.4655 35.8383H9.23239V32.5643H7.99577V40.0345H9.23239V36.6693H12.4655V40.0345H13.6822V32.5643H12.4655V35.8383Z" fill="#13AA52"/>
<path d="M15.1523 33.3954H17.3816V40.0345H18.6086V33.3954H20.838V32.5643H15.1523V33.3954Z" fill="#13AA52"/>
<path d="M25.7444 37.6724L23.524 32.5643H22.2881V40.0345H23.524V34.8952L25.2069 39.0514H26.2812L27.9537 34.8952V40.0345H29.1903V32.5643H27.9537L25.7444 37.6724Z" fill="#13AA52"/>
<path d="M32.3019 32.5643H31.0653V40.0345H35.7382V39.1122H32.3019V32.5643Z" fill="#13AA52"/>
<path d="M17.9466 12.8207C17.6567 12.5308 17.1881 12.5308 16.8983 12.8207L12.45 17.269C12.1601 17.5588 12.1601 18.0274 12.45 18.3173L16.8983 22.7655C17.0428 22.9101 17.2326 22.9828 17.4224 22.9828C17.6122 22.9828 17.802 22.9101 17.9466 22.7655C18.2365 22.4757 18.2365 22.0071 17.9466 21.7172L14.0224 17.7931L17.9466 13.869C18.2365 13.5791 18.2365 13.1106 17.9466 12.8207Z" fill="#13AA52"/>
<path d="M26.8431 12.8207C26.5532 12.5308 26.0847 12.5308 25.7948 12.8207C25.5049 13.1106 25.5049 13.5791 25.7948 13.869L29.7189 17.7931L25.7948 21.7172C25.5049 22.0071 25.5049 22.4757 25.7948 22.7655C25.9394 22.9101 26.1292 22.9828 26.319 22.9828C26.5088 22.9828 26.6986 22.9101 26.8431 22.7655L31.2914 18.3173C31.5813 18.0274 31.5813 17.5588 31.2914 17.269L26.8431 12.8207Z" fill="#13AA52"/>
</svg>
