<svg width="52" height="53" viewBox="0 0 52 53" fill="none" xmlns="http://www.w3.org/2000/svg">
<path d="M39.716 24.116C38.9924 21.977 36.0251 21.977 35.4463 23.7472C34.8674 25.5174 36.8214 26.55 39.8609 27.5828C42.9003 28.6154 44.782 31.3446 44.4201 33.7786C44.0582 36.2126 43.045 39.3844 37.0385 39.3844C33.2845 39.3844 31.1982 36.9929 30.1613 35.1994L33.5648 33.1148C33.5648 33.1148 34.7227 35.6226 36.8937 35.6226C39.0648 35.6226 39.9332 34.8851 39.9332 33.1886C39.9332 31.1233 32.9134 30.3858 31.8279 26.8452C30.7424 23.3047 32.1897 18.289 37.2555 18.6578C40.4217 18.8883 42.2026 20.4729 43.0931 21.629L39.716 24.116Z" fill="#13AA52"/>
<path d="M23.9397 19.0267C23.9397 19.0267 23.9397 31.4922 23.9397 33.1887C23.9397 34.8851 22.4923 35.7704 21.045 35.4753C19.5976 35.1802 18.9463 33.41 18.9463 33.41L15.6174 35.6966C15.6174 35.6966 16.341 39.0895 20.9002 39.3846C25.4595 39.6797 28.0647 36.8768 28.0647 34.5164C28.0647 32.156 28.0647 19.0267 28.0647 19.0267H23.9397Z" fill="#13AA52"/>
<path d="M7.51237 4.68027V45.1322C8.58955 46.2442 9.7632 47.2576 11.0197 48.1619H40.9803C41.9842 47.4394 42.935 46.6465 43.8276 45.7888H9.84069V7.05336H47.8442V40.8771C48.7611 39.4342 49.5432 37.894 50.1736 36.2758V4.68027H7.51237Z" fill="#13AA52"/>
</svg>
