<svg width="226" height="38" viewBox="0 0 226 38" fill="none" xmlns="http://www.w3.org/2000/svg">
<g clip-path="url(#clip0)">
<path d="M62.2552 26.3971V13.6659C62.2552 11.2341 62.8196 9.31728 63.9484 7.914C65.0787 6.51073 66.4928 5.8091 68.1891 5.8091C71.5168 5.8091 73.1807 8.24092 73.1807 13.1046V26.3971H79.0128V11.6242C79.0128 7.90013 78.2417 5.11671 76.695 3.27087C75.1499 1.42503 72.9432 0.502883 70.0735 0.502883C68.1891 0.502883 66.465 0.863724 64.9045 1.58695C63.3526 2.30152 61.9978 3.38272 60.9568 4.73737H60.855C59.3438 1.91386 56.8149 0.502883 53.265 0.502883C51.7708 0.502883 50.3321 0.837509 48.9488 1.50985C47.543 2.19957 46.3047 3.18791 45.3204 4.40583H45.2433V0.885313H39.4112V26.3709H45.2433V13.6659C45.2433 11.2341 45.8169 9.31728 46.9627 7.914C48.1084 6.51073 49.5734 5.8091 51.356 5.8091C54.7331 5.8091 56.4232 8.24092 56.4232 13.1046V26.3971H62.2552ZM94.7942 26.7795C98.2576 26.7795 100.958 25.5042 102.893 22.9521H102.97V26.3709H108.546V0.885313H102.714V3.94629H102.612C100.677 1.65017 98.0556 0.502883 94.7433 0.502883C93.106 0.491255 91.4837 0.815765 89.9768 1.45633C88.47 2.0969 87.1106 3.03989 85.9828 4.22695C84.8957 5.38349 84.0399 6.78676 83.4107 8.43676C82.7744 10.1324 82.4551 11.9304 82.4685 13.7414C82.4685 15.6813 82.7815 17.467 83.4092 19.1001C84.0383 20.7331 84.8957 22.1102 85.9828 23.2328C87.0886 24.3684 88.4203 25.2593 89.892 25.8481C91.4499 26.4764 93.1159 26.7929 94.7957 26.7795H94.7942ZM95.7117 21.4733C93.5543 21.4733 91.7979 20.7547 90.4394 19.3175C89.0824 17.8803 88.4023 16.0298 88.4023 13.7676C88.4023 11.3698 89.1024 9.44372 90.5026 7.98957C91.9043 6.53541 93.6484 5.8091 95.7364 5.8091C97.8073 5.8091 99.5267 6.56933 100.895 8.09134C102.261 9.61489 102.945 11.507 102.945 13.7676C102.945 16.0298 102.244 17.8803 100.844 19.3175C99.4419 20.7547 97.7318 21.4733 95.7117 21.4733ZM137.52 26.3971V11.3698C137.52 7.67961 136.693 4.94555 135.037 3.16756C133.384 1.39111 131.094 0.502883 128.175 0.502883C126.551 0.494085 124.944 0.833236 123.463 1.49751C121.988 2.15888 120.683 3.14462 119.643 4.38115H119.566V0.88377H113.734V26.3693H119.566V13.5641C119.566 11.1153 120.164 9.21087 121.361 7.84924C122.559 6.48914 124.158 5.8091 126.161 5.8091C127.079 5.8091 127.864 5.92784 128.517 6.16531C129.171 6.40433 129.745 6.79139 130.237 7.32648C130.73 7.86312 131.094 8.58942 131.332 9.50849C131.569 10.426 131.688 11.5486 131.688 12.8748V26.3971H137.52ZM153.277 26.7795C156.74 26.7795 159.439 25.5042 161.376 22.9521H161.453V26.3709H167.029V0.885313H161.197V3.94629H161.095C159.16 1.65017 156.537 0.502883 153.226 0.502883C151.588 0.491044 149.966 0.815451 148.458 1.45602C146.951 2.0966 145.592 3.0397 144.464 4.22695C143.378 5.38349 142.521 6.78676 141.892 8.43676C141.256 10.1325 140.937 11.9305 140.951 13.7414C140.951 15.6813 141.264 17.467 141.892 19.1001C142.521 20.7331 143.378 22.1102 144.464 23.2328C145.57 24.3686 146.902 25.2595 148.374 25.8481C149.932 26.4762 151.597 26.7927 153.277 26.7795ZM154.193 21.4733C152.037 21.4733 150.279 20.7547 148.922 19.3175C147.563 17.8803 146.883 16.0298 146.883 13.7676C146.883 11.3698 147.585 9.44372 148.985 7.98957C150.385 6.53541 152.131 5.8091 154.219 5.8091C156.29 5.8091 158.009 6.56933 159.375 8.09134C160.742 9.61489 161.426 11.507 161.426 13.7676C161.426 16.0298 160.725 17.8803 159.325 19.3175C157.924 20.7547 156.213 21.4733 154.193 21.4733ZM183.6 37.0866C185.45 37.0866 187.106 36.8707 188.565 36.4359C190.025 36.0026 191.253 35.3981 192.246 34.624C193.245 33.8439 194.084 32.8784 194.716 31.7804C195.377 30.6374 195.854 29.3973 196.129 28.1057C196.419 26.7795 196.562 25.3254 196.562 23.7432V0.885313H190.73V3.56386H190.628C189.583 2.56461 188.35 1.78352 187 1.2662C185.639 0.740411 184.192 0.472669 182.733 0.476668C180.408 0.476668 178.32 1.02872 176.469 2.13438C174.619 3.24003 173.178 4.77592 172.151 6.7405C171.124 8.70354 170.611 10.9118 170.611 13.3605C170.611 15.8433 171.151 18.0453 172.229 19.9683C173.306 21.8897 174.788 23.3654 176.673 24.394C178.557 25.4225 180.679 25.9376 183.04 25.9376C186.196 25.9376 188.77 24.8998 190.756 22.8257H190.858V25.5289C190.858 27.3331 190.195 28.8289 188.872 30.0194C187.546 31.2098 185.68 31.8051 183.268 31.8051C181.621 31.8051 180.175 31.6015 178.926 31.1929C177.678 30.7842 176.239 30.1474 174.609 29.2807L173.234 34.4327C174.66 35.284 176.266 35.9378 178.048 36.3973C179.831 36.8569 181.681 37.0866 183.6 37.0866ZM183.803 20.5558C181.698 20.5558 179.962 19.8865 178.596 18.5511C177.228 17.2172 176.545 15.4269 176.545 13.1817C176.545 11.0228 177.215 9.26176 178.557 7.90013C179.899 6.54003 181.647 5.85999 183.803 5.85999C185.857 5.85999 187.569 6.53078 188.935 7.87545C190.301 9.21858 190.986 10.9626 190.986 13.1046C190.986 15.265 190.318 17.0461 188.986 18.4493C187.654 19.8526 185.925 20.5542 183.803 20.5542V20.5558ZM213.235 26.7795C215.613 26.7795 217.705 26.3462 219.513 25.478C221.321 24.6114 222.802 23.4379 223.957 21.9575L219.883 18.4632C218.287 20.4694 216.172 21.4733 213.54 21.4733C211.674 21.4733 210.091 20.9536 208.791 19.9158C207.492 18.8796 206.656 17.4593 206.282 15.6567H224.823C224.925 15.0445 224.976 14.2688 224.976 13.3343C224.976 10.8686 224.475 8.66653 223.473 6.72662C222.5 4.81898 220.997 3.23326 219.144 2.16059C217.26 1.05494 215.085 0.502883 212.624 0.502883C210.938 0.490253 209.267 0.815334 207.708 1.45896C206.181 2.09737 204.865 2.98559 203.76 4.12517C202.658 5.26475 201.791 6.65106 201.164 8.28256C200.536 9.91713 200.221 11.6936 200.221 13.615C200.221 16.218 200.79 18.5264 201.927 20.5419C203.065 22.5574 204.619 24.101 206.589 25.1727C208.558 26.2444 210.774 26.7795 213.235 26.7795ZM219.118 10.9364H206.385C206.792 9.3034 207.582 8.04045 208.752 7.1476C209.924 6.25475 211.317 5.8091 212.93 5.8091C214.559 5.8091 215.906 6.26863 216.967 7.18615C218.028 8.10522 218.745 9.35428 219.118 10.9364Z" fill="#242D52"/>
<path fill-rule="evenodd" clip-rule="evenodd" d="M4.84758 16.3382C7.21926 16.3382 9.1422 18.3105 9.1422 20.7439C9.1422 23.1757 7.21926 25.1495 4.84758 25.1495C2.47435 25.1495 0.551407 23.1757 0.551407 20.7439C0.551407 18.3105 2.47435 16.3382 4.84758 16.3382ZM4.84758 0.476624C7.21926 0.476624 9.14066 2.45046 9.14066 4.88228C9.14066 7.31564 7.21772 9.28793 4.84603 9.28793C2.47435 9.28793 0.551407 7.31564 0.551407 4.88228C0.551407 2.45046 2.47435 0.476624 4.84758 0.476624ZM20.3113 0.476624C22.6845 0.476624 24.6075 2.45046 24.6075 4.88228C24.6075 7.31564 22.6845 9.28793 20.3113 9.28793C17.9396 9.28793 16.0167 7.31564 16.0167 4.88228C16.0167 2.45046 17.9396 0.476624 20.3113 0.476624Z" fill="#F3603C"/>
<path opacity="0.5" d="M20.3113 25.3253C22.684 25.3253 24.6075 23.3529 24.6075 20.9197C24.6075 18.4865 22.684 16.514 20.3113 16.514C17.9386 16.514 16.0151 18.4865 16.0151 20.9197C16.0151 23.3529 17.9386 25.3253 20.3113 25.3253Z" fill="#F3603C"/>
</g>
<defs>
<clipPath id="clip0">
<rect width="225.14" height="37.0093" fill="white" transform="translate(0.551407 0.476624)"/>
</clipPath>
</defs>
</svg>
