<svg width="26" height="40" viewBox="0 0 26 40" fill="none" xmlns="http://www.w3.org/2000/svg">
<g clip-path="url(#clip0)">
<path d="M12.819 0.109467L14.3636 2.11437C14.711 2.48427 15.0874 2.81187 15.5302 3.11697C16.8235 4.01068 18.0517 4.94668 19.1553 5.94928C21.7723 8.32409 23.538 10.9614 24.7983 13.8135C25.5546 15.5559 25.9648 17.3433 25.9957 19.1505C26.122 24.5538 23.4416 29.1933 18.0374 33.049C17.1547 33.6589 16.2105 34.2238 15.1976 34.7263C14.6623 34.7263 14.4088 34.4425 14.1882 34.1815C13.778 33.7027 13.5262 33.1563 13.3998 32.6127C13.2097 31.9587 13.0851 31.3053 13.1467 30.6303V30.3255C13.1033 30.2604 12.6314 0.263367 12.8194 0.109767V0.110067L12.819 0.109467Z" fill="#599636"/>
<path d="M12.8182 0.0425287C12.7548 -0.0447715 12.6918 0.0212287 12.628 0.0638288C12.6588 0.50123 12.4379 0.891231 12.0927 1.26383C11.7128 1.63373 11.2101 1.91783 10.7052 2.22263C7.90193 3.89994 5.69518 5.92614 3.92778 8.19205C1.57646 11.2419 0.364326 14.5101 0.0209186 17.9511C-0.136241 19.1922 0.589213 23.5719 1.15534 24.8355C2.70002 28.1901 5.47463 31.0011 9.06848 33.4407C9.95109 34.0281 10.8954 34.5729 11.8722 35.0967C12.1561 35.0967 12.1869 34.9218 12.2516 34.7916C12.3753 34.5132 12.4713 34.2288 12.5355 33.9414L13.1685 30.6744L12.8177 0.0425287H12.8182Z" fill="#6CAC48"/>
<path d="M14.3636 36.0532C14.427 35.5531 14.7743 35.1382 15.1525 34.7245C14.7726 34.6159 14.4904 34.3996 14.2699 34.1584C14.0797 33.9409 13.9225 33.6796 13.7997 33.4396C13.3582 32.5246 13.2644 31.5646 13.1376 30.6298V30.0637C12.9805 30.151 12.9475 30.8911 12.9475 31.0012C12.8593 31.9867 12.6635 32.9752 12.3796 33.9427C12.2854 34.3351 12.2224 34.7263 11.873 35.0749C11.873 35.1187 11.873 35.1622 11.9038 35.2276C12.4716 36.3826 12.6275 37.5586 12.723 38.7574V39.1948C12.723 39.7171 12.6922 39.607 13.32 39.7822C13.5731 39.8473 13.8553 39.8695 14.1084 39.9997C14.2985 39.9997 14.3293 39.8911 14.3293 39.8035L14.2351 39.0847V37.0798C14.2043 36.7297 14.2985 36.3823 14.3615 36.055L14.3636 36.0532Z" fill="#C2BFBF"/>
</g>
<defs>
<clipPath id="clip0">
<rect width="26" height="40" fill="white"/>
</clipPath>
</defs>
</svg>
