<svg width="37" height="37" viewBox="0 0 37 37" fill="none" xmlns="http://www.w3.org/2000/svg">
<g clip-path="url(#clip0)">
<path d="M36.8583 35.7843C36.2244 34.8907 35.1977 34.1493 34.1107 33.3641C32.9401 32.5203 31.738 31.6523 31.1358 30.6436C33.4204 30.1664 36.311 29.3014 36.4503 29.26C36.6987 29.1855 36.8936 28.9906 36.9674 28.7421C37.0419 28.4937 36.9862 28.2242 36.8191 28.0255C36.67 27.8485 33.1704 23.7422 27.5218 21.7278C27.2726 21.2288 26.9948 20.5889 26.6719 19.8489C24.397 14.6294 19.6742 3.79717 7.21373 2.3398C6.22081 1.6691 3.61854 0.00100708 2.31249 0.00100708C0.691795 0.00100708 0 0.692802 0 2.31349C0 3.10241 0.642076 4.02452 1.6892 5.46455C2.20105 6.16841 3.05776 7.34648 3.08334 7.70932C3.08334 8.97093 4.54671 13.0554 6.01839 14.8026C5.97626 14.8922 5.93406 14.9802 5.89265 15.0676C5.24074 16.4413 4.62497 17.7391 4.62497 20.8134C4.62497 24.8618 6.56406 26.98 8.47909 26.98C9.66771 26.98 10.2593 25.631 10.5439 24.0517C11.6001 26.1948 13.3254 28.9869 15.7425 30.6933C16.0911 30.9372 16.5721 30.8544 16.8175 30.5081C17.0629 30.1596 16.9801 29.6793 16.6323 29.4332C12.7992 26.7277 10.7735 20.6356 10.7532 20.5739C10.6358 20.2141 10.2669 19.9912 9.89954 20.0522C9.52542 20.1117 9.24987 20.4346 9.24987 20.8132C9.24987 22.93 8.84642 25.1853 8.47902 25.4382C7.36722 25.4382 6.16653 23.67 6.16653 20.8132C6.16653 18.086 6.66032 17.0457 7.28513 15.7283C7.40183 15.4822 7.52223 15.2292 7.64197 14.9598C7.77971 14.6489 7.69841 14.2845 7.441 14.0624C6.25318 13.0396 4.62497 8.73303 4.62497 7.70925C4.62497 6.92033 3.9829 5.99822 2.93577 4.5582C2.42392 3.85433 1.56722 2.67626 1.54163 2.31342C1.54163 1.54257 1.54163 1.54257 2.31249 1.54257C2.93729 1.54257 4.97351 2.67244 6.50163 3.72028C6.60627 3.79182 6.72746 3.83699 6.85464 3.8505C18.5699 5.12114 22.9216 15.1028 25.2589 20.4655C25.6526 21.3688 25.9929 22.1494 26.3 22.72C26.3926 22.8924 26.5469 23.0227 26.7313 23.0851C30.5787 24.3889 33.4475 26.8256 34.7919 28.1339C33.4791 28.502 31.3827 29.0621 29.9359 29.303C29.7235 29.3384 29.5354 29.4611 29.4179 29.6409C29.2998 29.8209 29.2621 30.0414 29.3148 30.2499C29.7883 32.1469 31.6055 33.4582 33.2081 34.6144C34.189 35.3221 35.1148 35.9905 35.5996 36.6755C35.7502 36.8878 35.9881 37.0007 36.2297 37.0007C36.384 37.0007 36.5391 36.9548 36.6746 36.8592C37.0216 36.6131 37.1044 36.1321 36.8583 35.7843Z" fill="#13AA52"/>
<path d="M6.93746 6.16675C6.93746 6.59282 7.28224 6.9376 7.70831 6.9376C8.1336 6.9376 8.47917 7.2831 8.47917 7.70845C8.47917 8.13453 8.82395 8.4793 9.25002 8.4793C9.6761 8.4793 10.0209 8.13453 10.0209 7.70845C10.0209 6.43326 8.98358 5.39597 7.70839 5.39597C7.28224 5.39589 6.93746 5.74067 6.93746 6.16675Z" fill="#13AA52"/>
<path d="M36.8583 35.7843C36.2244 34.8907 35.1977 34.1493 34.1107 33.3641C32.9401 32.5203 31.738 31.6523 31.1358 30.6436C33.4204 30.1664 36.311 29.3014 36.4503 29.26C36.6987 29.1855 36.8936 28.9906 36.9674 28.7421C37.0419 28.4937 36.9862 28.2242 36.8191 28.0255C36.67 27.8485 33.1704 23.7422 27.5218 21.7278C27.2726 21.2288 26.9948 20.5889 26.6719 19.8489C24.397 14.6294 19.6742 3.79717 7.21373 2.3398C6.22081 1.6691 3.61854 0.00100708 2.31249 0.00100708C0.691795 0.00100708 0 0.692802 0 2.31349C0 3.10241 0.642076 4.02452 1.6892 5.46455C2.20105 6.16841 3.05776 7.34648 3.08334 7.70932C3.08334 8.97093 4.54671 13.0554 6.01839 14.8026C5.97626 14.8922 5.93406 14.9802 5.89265 15.0676C5.24074 16.4413 4.62497 17.7391 4.62497 20.8134C4.62497 24.8618 6.56406 26.98 8.47909 26.98C9.66771 26.98 10.2593 25.631 10.5439 24.0517C11.6001 26.1948 13.3254 28.9869 15.7425 30.6933C16.0911 30.9372 16.5721 30.8544 16.8175 30.5081C17.0629 30.1596 16.9801 29.6793 16.6323 29.4332C12.7992 26.7277 10.7735 20.6356 10.7532 20.5739C10.6358 20.2141 10.2669 19.9912 9.89954 20.0522C9.52542 20.1117 9.24987 20.4346 9.24987 20.8132C9.24987 22.93 8.84642 25.1853 8.47902 25.4382C7.36722 25.4382 6.16653 23.67 6.16653 20.8132C6.16653 18.086 6.66032 17.0457 7.28513 15.7283C7.40183 15.4822 7.52223 15.2292 7.64197 14.9598C7.77971 14.6489 7.69841 14.2845 7.441 14.0624C6.25318 13.0396 4.62497 8.73303 4.62497 7.70925C4.62497 6.92033 3.9829 5.99822 2.93577 4.5582C2.42392 3.85433 1.56722 2.67626 1.54163 2.31342C1.54163 1.54257 1.54163 1.54257 2.31249 1.54257C2.93729 1.54257 4.97351 2.67244 6.50163 3.72028C6.60627 3.79182 6.72746 3.83699 6.85464 3.8505C18.5699 5.12114 22.9216 15.1028 25.2589 20.4655C25.6526 21.3688 25.9929 22.1494 26.3 22.72C26.3926 22.8924 26.5469 23.0227 26.7313 23.0851C30.5787 24.3889 33.4475 26.8256 34.7919 28.1339C33.4791 28.502 31.3827 29.0621 29.9359 29.303C29.7235 29.3384 29.5354 29.4611 29.4179 29.6409C29.2998 29.8209 29.2621 30.0414 29.3148 30.2499C29.7883 32.1469 31.6055 33.4582 33.2081 34.6144C34.189 35.3221 35.1148 35.9905 35.5996 36.6755C35.7502 36.8878 35.9881 37.0007 36.2297 37.0007C36.384 37.0007 36.5391 36.9548 36.6746 36.8592C37.0216 36.6131 37.1044 36.1321 36.8583 35.7843ZM6.93746 6.16761C6.93746 6.59369 7.28224 6.93847 7.70831 6.93847C8.13359 6.93847 8.47917 7.28397 8.47917 7.70932C8.47917 8.1354 8.82394 8.48017 9.25002 8.48017C9.67609 8.48017 10.0209 8.1354 10.0209 7.70932C10.0209 6.43413 8.98358 5.39683 7.70838 5.39683C7.28224 5.39676 6.93746 5.74154 6.93746 6.16761Z" fill="url(#paint0_linear)"/>
</g>
<defs>
<linearGradient id="paint0_linear" x1="-3.47248" y1="8.95696" x2="40.2845" y2="29.3577" gradientUnits="userSpaceOnUse">
<stop stop-color="white" stop-opacity="0.2"/>
<stop offset="1" stop-color="white" stop-opacity="0"/>
</linearGradient>
<clipPath id="clip0">
<rect width="37" height="37" fill="white"/>
</clipPath>
</defs>
</svg>
