<svg width="54" height="54" viewBox="0 0 54 54" fill="none" xmlns="http://www.w3.org/2000/svg">
<path d="M54 27C54 41.9117 41.9117 54 27 54C13.2421 54 1.88779 43.7103 0.213785 30.4064C0.0727734 29.2911 0 28.1538 0 27C0 24.8863 0.242473 22.8288 0.702 20.855C3.48353 8.90452 14.202 0 27 0C39.766 0 50.4635 8.86043 53.276 20.7669C53.6451 22.324 53.8777 23.9331 53.9626 25.5806C53.9879 26.0511 54 26.5239 54 27Z" fill="#F2F2F2"/>
<path d="M25.6495 29.1683V22.1484L19.57 18.6385L13.4907 22.1484V29.1683L19.57 32.6782L25.6495 29.1683Z" fill="#3B8739"/>
<path d="M49.5918 28.1031L53.5537 30.3909L49.5918 32.6787L43.5129 29.1687V22.1487L49.5918 18.6387L53.276 20.7668C53.6451 22.3239 53.8776 23.9329 53.9626 25.5805L51.71 26.8809V24.4355L49.5918 23.2133L47.4737 24.4355V26.8809L49.5918 28.1031Z" fill="#333333"/>
<path d="M50.7718 26.3398V24.9771L49.5917 24.2958L48.4115 24.9771V26.3398L49.5917 27.0212L50.7718 26.3398Z" fill="#66A060"/>
<path d="M10.6192 22.1488V31.4059L6.5648 29.0928V24.3474L4.54043 23.1781L2.51596 24.3473V29.0927L0.213785 30.4064C0.0727734 29.2911 0 28.1538 0 27C0 24.8863 0.242473 22.8288 0.702 20.8549L4.54043 18.6387L10.6192 22.1488Z" fill="#333333"/>
<path d="M25.6488 29.1675L19.5696 18.6382L13.4905 22.148L19.5698 32.6773L25.6488 29.1675Z" fill="#6DA75D"/>
<path d="M13.4907 29.1683L15.5782 25.7642L13.4907 22.1484V29.1683Z" fill="#55A344"/>
<path d="M23.6228 25.6581L25.6495 22.1484L19.57 18.6385L23.6228 25.6581Z" fill="#639D57"/>
<path d="M36.5503 10.5025V19.8158L34.5126 18.6388L28.4327 22.1488V29.1688L34.5126 32.6788L40.5916 29.1688V12.6657L36.5503 10.5025ZM36.5392 26.8281L34.5125 27.9985L32.4859 26.8281V24.4885L34.5125 23.3181L36.5392 24.4885V26.8281Z" fill="#333333"/>
<path d="M29.7579 37.8334C29.7579 37.8334 29.6385 36.8073 28.5409 36.8073C27.4432 36.8073 26.6916 36.9504 26.6916 37.559C26.6916 38.1676 28.8274 38.1676 29.6387 38.4061C30.4501 38.6447 31.1659 39.2652 30.808 40.3629C30.45 41.4606 29.3523 41.5799 27.658 41.5799C25.9638 41.5799 25.5819 40.1719 25.5819 39.6231H26.5364C26.5364 39.6231 26.417 40.4822 27.5385 40.6253C28.6601 40.7684 29.7325 40.849 29.8771 39.9811C30.068 38.8356 26.2499 39.4084 25.9158 38.2868C25.6336 37.3392 25.7964 36.0915 27.7055 35.9005C29.6146 35.7095 30.6645 36.5524 30.6645 37.8096L29.7579 37.8334Z" fill="#66A060"/>
<path d="M20.5372 42.3068L22.6474 43.5251C23.7077 44.1372 25.033 43.372 25.033 42.1477V40.0129V36.0838H24.1729V41.9085C24.1729 42.5771 23.4492 42.9951 22.8701 42.6606L21.3972 41.8104V35.594L26.7806 32.4862L32.1641 35.594V41.8104L26.7806 44.9182L25.2298 44.0229L24.2171 44.4313L26.7805 45.9113L33.0241 42.3065V35.0976L26.7806 31.493L20.5371 35.0978V42.3068H20.5372Z" fill="#66A060"/>
</svg>
