<svg width="44" height="44" viewBox="0 0 44 44" fill="none" xmlns="http://www.w3.org/2000/svg">
<path d="M44 22C44 29.2483 40.4944 35.6777 35.0868 39.6862C32.8231 41.3636 30.2262 42.6171 27.4137 43.3283C25.6816 43.7675 23.8686 44 22 44C20.1314 44 18.3175 43.7675 16.5853 43.3283C13.7729 42.6171 11.176 41.3636 8.91223 39.6852C3.5047 35.6768 0 29.2475 0 22C0 9.84973 9.84973 0 22 0C34.1503 0 44 9.84973 44 22Z" fill="#13AA52"/>
<path d="M35.1093 34.3874C35.006 33.6951 34.8696 32.982 34.7008 32.253C34.5517 31.6127 34.3784 30.9599 34.1818 30.2972C33.6646 28.557 32.9831 26.7485 32.157 24.9202C31.7951 24.121 31.4053 23.3183 30.9896 22.5164C30.6232 21.8097 30.2371 21.1021 29.8303 20.399C29.4244 19.695 29.006 19.0071 28.5759 18.3364C28.09 17.5759 27.5899 16.8377 27.078 16.1247C25.9089 14.4949 24.6832 12.9999 23.4341 11.6816C22.9591 11.1796 22.4805 10.7037 22.0001 10.2556C21.4533 9.74377 20.9037 9.2688 20.355 8.83326C16.773 5.98942 13.5664 5.13546 11.3242 6.42942C9.08204 7.72424 8.2182 10.9282 8.88989 15.453C8.99224 16.1453 9.12965 16.8584 9.29938 17.5875C9.44667 18.2277 9.61992 18.8806 9.81749 19.5432C10.3348 21.2835 11.0162 23.0929 11.8433 24.9202C12.2043 25.7194 12.594 26.5212 13.0097 27.3231C13.3761 28.0307 13.7631 28.7373 14.169 29.4413C14.5749 30.1453 14.9933 30.8332 15.4235 31.5039C15.9101 32.2654 16.4103 33.0035 16.9213 33.7165C18.0904 35.3463 19.3161 36.8405 20.5652 38.1587C21.0402 38.6606 21.5197 39.1374 22.0001 39.5855C22.5469 40.0973 23.0965 40.5714 23.6442 41.007C24.9616 42.0531 26.2277 42.8298 27.4139 43.3282C30.2263 42.617 32.8232 41.3635 35.0869 39.6861C35.4029 38.2297 35.4146 36.4455 35.1093 34.3874ZM33.0925 39.3594C32.8311 40.489 32.3507 41.2631 31.6638 41.6591C30.9778 42.0559 30.0673 42.0847 28.9583 41.7471C27.7568 41.3798 26.3542 40.577 24.9013 39.4232C24.4129 39.0352 23.9235 38.6132 23.434 38.1597C22.9545 37.7143 22.475 37.2384 21.9991 36.7346C21.182 35.8699 20.3738 34.9234 19.5854 33.9079C19.0592 33.2299 18.5411 32.5214 18.0355 31.786C17.3019 30.7201 16.5934 29.5977 15.9199 28.4303C15.2456 27.2629 14.6278 26.0884 14.0719 24.9202C13.6876 24.1147 13.3329 23.3119 13.0096 22.5173C12.5238 21.3266 12.1081 20.153 11.7678 19.0134C11.5702 18.349 11.3969 17.697 11.2523 17.0586C11.1032 16.4085 10.982 15.7727 10.8904 15.1559C10.6175 13.3214 10.6238 11.705 10.9066 10.4811C11.1679 9.35147 11.6492 8.57743 12.3352 8.18143C12.706 7.9677 13.1416 7.85994 13.6381 7.85994C14.0619 7.85994 14.5307 7.93805 15.0407 8.09429C16.2422 8.46064 17.6448 9.26433 19.0976 10.4174C19.5861 10.8053 20.0764 11.2273 20.5649 11.6826C21.0453 12.1271 21.524 12.603 21.999 13.1059C22.817 13.9706 23.6252 14.9171 24.4145 15.9336C24.9407 16.6116 25.4588 17.32 25.9644 18.0555C26.6971 19.1214 27.4056 20.2438 28.079 21.4102C28.7534 22.5776 29.3712 23.7521 29.927 24.9203C30.3114 25.7267 30.6661 26.5295 30.9893 27.3242C31.4751 28.5148 31.8909 29.6876 32.2312 30.8271C32.4288 31.4915 32.602 32.1435 32.7475 32.7819C32.8957 33.432 33.0169 34.0678 33.1085 34.6846C33.3816 36.5192 33.3754 38.1355 33.0925 39.3594Z" fill="#F2F2F2"/>
<path d="M36.7535 18.3014C36.1024 18.0446 35.4164 17.8066 34.6998 17.5875C34.0713 17.3962 33.4194 17.2193 32.7467 17.0586C30.9813 16.6366 29.0741 16.3223 27.078 16.1247C26.206 16.0376 25.3162 15.9739 24.4146 15.9334C23.619 15.8967 22.8126 15.8777 22 15.8777C21.1874 15.8777 20.3809 15.8966 19.5845 15.9334C18.682 15.9738 17.7922 16.0385 16.9202 16.1247C14.9241 16.3223 13.0177 16.6366 11.2523 17.0586C10.5798 17.2193 9.92784 17.3963 9.29921 17.5875C8.58266 17.8057 7.89662 18.0446 7.24556 18.3014C2.992 19.9805 0.64831 22.3314 0.64831 24.9202C0.64831 27.509 2.992 29.8599 7.24565 31.5399C7.89671 31.7967 8.5818 32.0347 9.29835 32.2538C9.9269 32.4451 10.5788 32.622 11.2515 32.7818C13.0169 33.2047 14.9241 33.5181 16.9212 33.7166C17.7931 33.8028 18.683 33.8665 19.5854 33.9079C20.381 33.9446 21.1874 33.9626 22 33.9626C22.8126 33.9626 23.6181 33.9446 24.4137 33.9079C25.3162 33.8665 26.2052 33.8028 27.078 33.7166C29.0741 33.519 30.9823 33.2047 32.7477 32.7818C33.4202 32.6211 34.0722 32.4451 34.7008 32.253C35.4165 32.0348 36.1025 31.7968 36.7535 31.5399C41.008 29.8599 43.3508 27.509 43.3508 24.9202C43.3507 22.3314 41.008 19.9805 36.7535 18.3014ZM40.0507 27.3069C39.133 28.1645 37.7358 28.9771 36.0108 29.6587C35.4299 29.8876 34.8192 30.1013 34.1816 30.2971C33.5558 30.4902 32.9048 30.6671 32.2313 30.8269C31.0738 31.1026 29.8499 31.3289 28.5757 31.504C27.7262 31.6217 26.8543 31.7159 25.9644 31.7851C24.674 31.8884 23.3478 31.9405 21.9999 31.9405C20.6521 31.9405 19.3258 31.8884 18.0354 31.7861C17.1456 31.716 16.2728 31.6217 15.4233 31.5041C14.1491 31.329 12.9252 31.1027 11.7677 30.827C11.0942 30.6672 10.4432 30.4903 9.81733 30.2972C9.17976 30.1014 8.56917 29.8877 7.98815 29.6588C6.26321 28.9772 4.86595 28.1646 3.94822 27.307C3.10054 26.5159 2.67042 25.7131 2.67042 24.9203C2.67042 24.1274 3.10054 23.3246 3.94822 22.5335C4.86595 21.6759 6.26312 20.8633 7.98815 20.1818C8.56908 19.9528 9.17976 19.7391 9.81733 19.5433C10.4432 19.3502 11.0942 19.1734 11.7677 19.0135C12.9252 18.7378 14.1491 18.5116 15.4233 18.3364C16.2728 18.2188 17.1456 18.1245 18.0354 18.0545C19.3258 17.9521 20.6521 17.9 21.9999 17.9C23.3478 17.9 24.674 17.9521 25.9644 18.0554C26.8543 18.1246 27.7262 18.2189 28.5757 18.3365C29.8499 18.5116 31.0738 18.7379 32.2313 19.0136C32.9048 19.1734 33.5558 19.3503 34.1816 19.5434C34.8192 19.7392 35.4298 19.9529 36.0108 20.1818C37.7358 20.8634 39.133 21.676 40.0507 22.5336C40.8984 23.3247 41.3285 24.1275 41.3285 24.9203C41.3285 25.7131 40.8984 26.5159 40.0507 27.3069Z" fill="#F2F2F2"/>
<path d="M32.6749 6.42942C30.4327 5.13546 27.2261 5.98942 23.6442 8.83326C23.0964 9.2688 22.5468 9.74377 22 10.2556C21.5196 10.7037 21.0401 11.1805 20.5651 11.6824C19.316 13.0006 18.0904 14.4948 16.9203 16.1246C16.4094 16.8376 15.9092 17.5758 15.4235 18.3363C14.9933 19.0071 14.5749 19.6949 14.169 20.3989C13.7632 21.1029 13.3762 21.8096 13.0097 22.5172C12.594 23.3191 12.2042 24.1218 11.8433 24.9201C11.0162 26.7483 10.3348 28.5568 9.8175 30.297C9.61993 30.9606 9.44668 31.6134 9.29844 32.2536C9.12966 32.9828 8.99224 33.6949 8.88989 34.3872C8.58456 36.4445 8.59624 38.2287 8.91232 39.6852C11.1761 41.3634 13.7729 42.617 16.5854 43.3282C17.7716 42.8299 19.0377 42.0531 20.3551 41.007C20.9037 40.5714 21.4533 40.0965 22.0002 39.5855C22.4806 39.1374 22.9592 38.6615 23.4342 38.1595C24.6824 36.8413 25.909 35.3462 27.0781 33.7164C27.589 33.0034 28.0893 32.2652 28.5759 31.5038C29.0061 30.8331 29.4245 30.1453 29.8304 29.4413C30.2371 28.7381 30.6232 28.0314 30.9897 27.3238C31.4054 26.522 31.7952 25.7192 32.157 24.92C32.9832 23.0926 33.6647 21.2833 34.1819 19.5431C34.3785 18.8804 34.5519 18.2275 34.7 17.5873C34.8698 16.8581 35.0062 16.1452 35.1095 15.4529C35.7809 10.9282 34.9172 7.72424 32.6749 6.42942ZM32.2314 19.0134C31.8911 20.153 31.4753 21.3257 30.9895 22.5163C30.6662 23.311 30.3115 24.1138 29.9272 24.9202C29.3714 26.0884 28.7536 27.2629 28.0792 28.4303C27.4057 29.5967 26.6973 30.7191 25.9646 31.785C25.4581 32.5213 24.94 33.2298 24.4138 33.9078C23.6254 34.9234 22.8173 35.8698 21.9992 36.7345C21.5243 37.2373 21.0456 37.7133 20.5652 38.1587C20.0767 38.613 19.5864 39.0351 19.0979 39.423C17.645 40.5769 16.2424 41.3796 15.041 41.7469C13.932 42.0846 13.0214 42.0558 12.3354 41.6589C11.6493 41.2629 11.168 40.4889 10.9068 39.3592C10.6239 38.1353 10.6176 36.519 10.8906 34.6845C10.9822 34.0676 11.1034 33.4318 11.2515 32.7817C11.397 32.1433 11.5703 31.4914 11.7679 30.8269C12.1082 29.6874 12.5239 28.5137 13.0097 27.3231C13.333 26.5284 13.6877 25.7256 14.072 24.9202C14.6279 23.7519 15.2457 22.5774 15.92 21.41C16.5935 20.2427 17.302 19.1202 18.0356 18.0544C18.5412 17.3189 19.0584 16.6104 19.5846 15.9334C20.3739 14.917 21.1821 13.9705 21.9991 13.1057C22.4751 12.602 22.9546 12.126 23.434 11.6816C23.9235 11.2272 24.4128 10.8052 24.9013 10.4173C26.3542 9.26433 27.7569 8.46064 28.9583 8.0942C29.4683 7.93797 29.937 7.85985 30.3609 7.85985C30.8574 7.85985 31.2938 7.96762 31.6638 8.18134C32.3507 8.57734 32.8311 9.35138 33.0924 10.481C33.3752 11.705 33.3816 13.3213 33.1085 15.1558C33.0169 15.7726 32.8958 16.4084 32.7467 17.0585C32.6022 17.6969 32.4289 18.3489 32.2314 19.0134Z" fill="#F2F2F2"/>
<path d="M22 28.9331C24.2163 28.9331 26.0129 27.1364 26.0129 24.9202C26.0129 22.7039 24.2163 20.9072 22 20.9072C19.7837 20.9072 17.9871 22.7039 17.9871 24.9202C17.9871 27.1364 19.7837 28.9331 22 28.9331Z" fill="#F2F2F2"/>
</svg>
