<svg width="40" height="40" viewBox="0 0 40 40" fill="none" xmlns="http://www.w3.org/2000/svg">
<path d="M40 20C40 21.809 39.76 23.5624 39.3094 25.2294C38.2563 29.1273 36.0547 32.5534 33.089 35.1224C29.5813 38.1616 25.0057 40 20 40C8.9543 40 0 31.0457 0 20C0 8.9543 8.9543 0 20 0C31.0457 0 40 8.9543 40 20Z" fill="#13AA52"/>
<path d="M39.3094 25.2294C38.2563 29.1273 36.0547 32.5534 33.089 35.1224C32.7992 35.138 32.4963 35.1453 32.182 35.1453C28.0294 35.1453 25.7216 32.5502 24.5747 30.6033L28.3396 28.3413C28.3396 28.3413 29.6204 31.0629 32.0213 31.0629C34.4229 31.0629 35.3837 30.2621 35.3837 28.4213C35.3837 26.1796 27.6188 25.3796 26.418 21.5372C25.2172 17.6948 26.818 12.2506 32.422 12.6515C35.9241 12.9012 37.8939 14.6213 38.8791 15.8759L35.1436 18.5747C34.3428 16.2539 31.0612 16.2539 30.4203 18.1747C29.7803 20.0963 31.9411 21.2163 35.3036 22.3371C37.031 22.9127 38.4204 23.9747 39.3094 25.2294Z" fill="#F2F2F2"/>
<path d="M23.5112 13.2645H6.49266V17.2814H12.7293V34.7227H17.2746V17.2814H23.5112V13.2645Z" fill="#F2F2F2"/>
</svg>
